<?xml version="1.0" standalone="no"?>
<!DOCTYPE svg PUBLIC "-//W3C//DTD SVG 20010904//EN"
 "http://www.w3.org/TR/2001/REC-SVG-20010904/DTD/svg10.dtd">
<svg version="1.0" xmlns="http://www.w3.org/2000/svg"
 width="106.000000pt" height="106.000000pt" viewBox="0 0 106.000000 106.000000"
 preserveAspectRatio="xMidYMid meet">
<metadata>
Created by potrace 1.11, written by Peter Selinger 2001-2013
</metadata>
<g transform="translate(0.000000,106.000000) scale(0.100000,-0.100000)"
fill="#000000" stroke="none">
<path d="M421 1035 c-256 -56 -440 -314 -403 -566 33 -230 193 -400 418 -446
281 -58 564 149 606 442 37 262 -144 513 -412 571 -80 17 -126 17 -209 -1z
m219 -303 c29 -22 55 -64 64 -105 6 -25 4 -28 -15 -25 -15 2 -26 14 -33 35
-19 56 -48 77 -110 77 -47 1 -59 -3 -85 -28 -80 -77 -60 -309 31 -347 65 -27
150 11 163 72 5 23 12 29 31 29 27 0 27 -4 4 -66 -22 -56 -116 -95 -191 -79
-88 20 -129 91 -129 222 0 49 5 104 10 123 11 41 61 92 105 109 41 15 124 5
155 -17z"/>
</g>
</svg>
